<svg xmlns="http://www.w3.org/2000/svg" xmlns:xlink="http://www.w3.org/1999/xlink" width="300" height="34" viewBox="0 0 300 34">
    <defs>
        <path id="a" d="M0 33.691h299.948V0H0z"/>
    </defs>
    <g fill="none" fill-rule="evenodd">
        <path fill="#12234F" d="M127.835 30.623c-2.588 0-4.596-1.793-4.596-4.89 0-3.198 2.138-5.047 4.713-5.047 1.701 0 2.676.63 2.836.788l-.422.675c-.102-.072-.974-.617-2.342-.617-2.094 0-3.84 1.52-3.84 4.086 0 2.524 1.455 4.173 3.724 4.173 1.454 0 2.182-.444 2.225-.458v-2.797h-2.225v-.746h3.142v4.016c-.088.071-1.179.817-3.215.817"/>
        <mask id="b" fill="#fff">
            <use xlink:href="#a"/>
        </mask>
        <path fill="#12234F" d="M133.055 30.437h.873V20.112h-.873zM138.742 24.127c-1.396 0-2.269 1.133-2.269 2.84 0 1.735.975 2.882 2.284 2.882 1.44 0 2.269-1.105 2.269-2.825 0-1.735-.99-2.897-2.284-2.897m-.015 6.481c-1.905 0-3.155-1.405-3.155-3.613 0-2.18 1.221-3.613 3.228-3.613 1.891 0 3.127 1.39 3.127 3.67 0 2.151-1.236 3.556-3.2 3.556M146.304 24.142c-1.076 0-1.76.602-1.861.674v4.76c.145.043.625.244 1.512.244 1.586 0 2.604-1.147 2.604-2.91 0-1.65-.887-2.768-2.255-2.768m-.378 6.438c-1.207 0-2.08-.359-2.356-.459V20.112h.873v3.886c.072-.057.814-.616 1.949-.616 1.876 0 3.069 1.39 3.069 3.498 0 2.194-1.455 3.7-3.535 3.7M155.045 26.938h-.393c-1.789 0-3.098.4-3.098 1.563 0 .688.451 1.319 1.542 1.319.901 0 1.76-.473 1.949-.56v-2.322zm.073 3.499v-.517c-.059.03-.99.66-2.226.66-1.338 0-2.24-.846-2.24-2.094 0-2.179 2.822-2.25 4.029-2.25h.364v-.26c0-.644-.03-1.117-.35-1.447-.217-.215-.61-.402-1.323-.402-1.076 0-1.833.488-1.934.546l-.364-.603c.059-.057.96-.703 2.4-.703.887 0 1.483.258 1.89.66.466.46.554.932.554 1.979v4.43h-.8zM157.85 30.437h.874V20.112h-.873zM167.566 21.647v8.79h-.93v-8.79h-2.939v-.775h6.807v.775zM174.067 24.2c-.102-.015-.291-.044-.567-.044-1.484 0-2.066 1.147-2.124 1.204v5.077h-.873v-6.883h.83v.903c.072-.086.785-1.09 2.21-1.09.524 0 .684.1.727.115l-.203.717zM179.186 26.938h-.393c-1.789 0-3.098.4-3.098 1.563 0 .688.452 1.319 1.542 1.319.902 0 1.76-.473 1.95-.56v-2.322zm.073 3.499v-.517c-.058.03-.99.66-2.226.66-1.338 0-2.24-.846-2.24-2.094 0-2.179 2.822-2.25 4.03-2.25h.363v-.26c0-.644-.029-1.117-.349-1.447-.218-.215-.611-.402-1.323-.402-1.077 0-1.833.488-1.935.546l-.364-.603c.059-.057.96-.703 2.4-.703.887 0 1.484.258 1.891.66.466.46.553.932.553 1.979v4.43h-.8zM186.5 30.437V26.42c0-.86.015-1.476-.406-1.892-.247-.244-.67-.387-1.091-.387-1.033 0-2.11.645-2.138.673v5.622h-.873v-6.883h.83v.502c.116-.072 1.12-.675 2.297-.675.495 0 1.15.115 1.615.574.538.531.64 1.062.64 2.338v4.144h-.873zM191.096 30.609c-1.323 0-2.283-.617-2.341-.675l.378-.66c.043.03.916.575 1.905.575 1.047 0 1.673-.46 1.673-1.205 0-.932-1.018-1.204-1.746-1.477-1.033-.401-1.934-.731-1.934-1.978 0-1.105 1.018-1.808 2.327-1.808 1.236 0 2.05.56 2.109.617l-.35.617c-.101-.057-.814-.488-1.686-.488-.815 0-1.499.402-1.499 1.033 0 .802.713.989 1.499 1.305.945.372 2.182.76 2.182 2.093 0 1.29-.975 2.05-2.517 2.05M198.106 24.142c-1.004 0-1.79.602-1.877.674v4.545c.132.072.67.459 1.6.459 1.513 0 2.517-1.19 2.517-2.997 0-1.592-.916-2.681-2.24-2.681m-.291 6.438c-.887 0-1.469-.316-1.586-.388v3.298h-.872v-9.936h.829v.473c.058-.043.844-.645 2.007-.645 1.833 0 3.055 1.39 3.055 3.47 0 2.208-1.411 3.728-3.433 3.728M205.668 24.127c-1.396 0-2.269 1.133-2.269 2.84 0 1.735.975 2.882 2.284 2.882 1.44 0 2.268-1.105 2.268-2.825 0-1.735-.989-2.897-2.283-2.897m-.014 6.481c-1.906 0-3.157-1.405-3.157-3.613 0-2.18 1.222-3.613 3.23-3.613 1.89 0 3.126 1.39 3.126 3.67 0 2.151-1.236 3.556-3.2 3.556M214.06 24.2c-.102-.015-.291-.044-.568-.044-1.483 0-2.065 1.147-2.123 1.204v5.077h-.873v-6.883h.83v.903c.072-.086.785-1.09 2.21-1.09.524 0 .684.1.727.115l-.203.717zM218.131 30.594c-.64 0-1.105-.158-1.44-.487-.407-.402-.407-.947-.407-1.778v-4.073h-1.222v-.702h1.222v-1.95h.873v1.95h2.24v.702h-2.24v3.9c0 .947-.073 1.664 1.09 1.664.539 0 .96-.2 1.033-.215l.233.66c-.116.057-.596.33-1.382.33M228.573 26.938h-.392c-1.79 0-3.099.4-3.099 1.563 0 .688.451 1.319 1.542 1.319.902 0 1.76-.473 1.95-.56v-2.322zm.073 3.499v-.517c-.058.03-.989.66-2.226.66-1.338 0-2.24-.846-2.24-2.094 0-2.179 2.823-2.25 4.03-2.25h.363v-.26c0-.644-.029-1.117-.35-1.447-.217-.215-.61-.402-1.322-.402-1.077 0-1.833.488-1.935.546l-.364-.603c.059-.057.96-.703 2.4-.703.887 0 1.484.258 1.891.66.466.46.553.932.553 1.979v4.43h-.8zM235.888 30.437V26.42c0-.86.014-1.476-.407-1.892-.247-.244-.67-.387-1.09-.387-1.034 0-2.11.645-2.14.673v5.622h-.872v-6.883h.83v.502c.116-.072 1.12-.675 2.297-.675.495 0 1.149.115 1.615.574.537.531.64 1.062.64 2.338v4.144h-.873zM243.319 24.6c-.102-.057-.683-.458-1.585-.458-1.513 0-2.53 1.19-2.53 2.997 0 1.591.93 2.68 2.254 2.68 1.018 0 1.614-.5 1.861-.673V24.6zm.087 5.837v-.517c-.087.072-.901.66-2.036.66-1.833 0-3.069-1.391-3.069-3.47 0-2.209 1.411-3.729 3.433-3.729.93 0 1.512.345 1.585.388v-3.657h.888v10.325h-.8zM249.965 30.437v-9.565h.93v8.761h4.175v.804zM259.17 24.127c-1.396 0-2.268 1.133-2.268 2.84 0 1.735.974 2.882 2.283 2.882 1.44 0 2.269-1.105 2.269-2.825 0-1.735-.99-2.897-2.284-2.897m-.014 6.481c-1.905 0-3.157-1.405-3.157-3.613 0-2.18 1.222-3.613 3.23-3.613 1.89 0 3.127 1.39 3.127 3.67 0 2.151-1.237 3.556-3.2 3.556M268.623 24.472c-.102-.043-.683-.33-1.585-.33-1.527 0-2.53 1.175-2.53 2.896 0 1.577.872 2.653 2.166 2.653 1.018 0 1.847-.602 1.95-.66v-4.56zm.233 8.46c-.611.602-1.338.76-2.269.76-1.556 0-2.516-.775-2.589-.847l.393-.602c.102.057.945.688 2.138.688.858 0 1.338-.215 1.643-.53.437-.43.451-.904.451-2.008v-.53c-.13.072-.93.588-2.036.588-1.745 0-2.982-1.42-2.982-3.398 0-2.123 1.455-3.671 3.477-3.671 1.221 0 2.283.53 2.429.587v6.568c0 1.218-.132 1.864-.655 2.394zM271.546 30.437h.873v-6.883h-.873v6.883zm.436-8.633a.58.58 0 0 1-.581-.573.58.58 0 0 1 .581-.574.58.58 0 0 1 .582.574.58.58 0 0 1-.582.573zM276.244 30.609c-1.324 0-2.284-.617-2.342-.675l.378-.66c.043.03.916.575 1.905.575 1.047 0 1.673-.46 1.673-1.205 0-.932-1.018-1.204-1.745-1.477-1.033-.401-1.935-.731-1.935-1.978 0-1.105 1.018-1.808 2.327-1.808 1.236 0 2.05.56 2.109.617l-.349.617c-.102-.057-.814-.488-1.687-.488-.814 0-1.498.402-1.498 1.033 0 .802.713.989 1.498 1.305.945.372 2.182.76 2.182 2.093 0 1.29-.975 2.05-2.516 2.05M282.802 30.594c-.64 0-1.105-.158-1.44-.487-.407-.402-.407-.947-.407-1.778v-4.073h-1.221v-.702h1.221v-1.95h.873v1.95h2.24v.702h-2.24v3.9c0 .947-.073 1.664 1.09 1.664.539 0 .96-.2 1.033-.215l.233.66c-.116.057-.596.33-1.382.33M285.812 30.437h.873v-6.883h-.873v6.883zm.437-8.633a.58.58 0 0 1-.582-.573.58.58 0 0 1 .582-.574.58.58 0 0 1 .582.574.58.58 0 0 1-.582.573zM291.63 30.58c-1.92 0-3.302-1.305-3.302-3.441 0-2.223 1.426-3.757 3.477-3.757 1.221 0 2.05.617 2.108.673l-.392.603c-.146-.086-.742-.502-1.76-.502-1.512 0-2.53 1.233-2.53 2.853 0 1.693 1.032 2.768 2.442 2.768 1.106 0 1.848-.473 1.964-.53l.378.645c-.058.071-1.061.688-2.385.688M297.432 30.609c-1.324 0-2.283-.617-2.342-.675l.379-.66c.043.03.916.575 1.905.575 1.047 0 1.673-.46 1.673-1.205 0-.932-1.018-1.204-1.746-1.477-1.033-.401-1.934-.731-1.934-1.978 0-1.105 1.018-1.808 2.327-1.808 1.236 0 2.05.56 2.109.617l-.35.617c-.101-.057-.814-.488-1.686-.488-.815 0-1.499.402-1.499 1.033 0 .802.713.989 1.499 1.305.945.372 2.182.76 2.182 2.093 0 1.29-.975 2.05-2.517 2.05M91.078 28.6c-.341.652-1.348 1.827-3.093 1.827h-7.176c-1.735 0-2.761-1.188-3.07-1.811L68.023 9.182c-.954-1.832-2.955-2.42-4.628-2.42H45.753c-1.627 0-2.575 1.027-2.575 2.536 0 1.605 1.057 2.535 2.6 2.535h12.137c5.169 0 9.446 3.077 9.446 9.297 0 6.259-4.319 9.295-9.446 9.295h-15.6c-1.414 0-2.59-.807-2.59-2.565v-3.348c0-.569.387-.847.864-.847h13.873c1.439 0 2.591-.85 2.591-2.535 0-1.665-1.131-2.538-2.586-2.538l-13.05.003c-2.187 0-4.173-.588-5.577-1.497-.72 8.246-6.71 13.327-15.461 13.327H.863c-.479 0-.863-.28-.863-.845V12.68c0-.562.38-.843.848-.846h6.87c1.831 0 2.645 1.156 2.645 2.524v8.462h.006c0 .561.379.84.847.844h5.959c4.689 0 8.588-2.795 8.588-8.449 0-5.666-3.883-8.451-8.588-8.451H.842C.377 6.755 0 6.477 0 5.916V2.56C0 .664 1.363.001 2.617.001h17.85c5.026 0 9.57 1.83 12.246 5.208C34.167 1.773 37.415 0 41.496 0h25.566c3.141 0 6.697 1.062 8.546 4.63l8.272 17.083c.085.174.254.257.464.257.192 0 .371-.07.46-.248 0 0 10.23-21.191 10.29-21.311.053-.115.263-.41.763-.41h7.867c.478 0 .865.279.865.843a.98.98 0 0 1-.085.413L91.078 28.6z" mask="url(#b)"/>
    </g>
</svg>
